<?xml version="1.0" encoding="utf-8"?>
<!-- Generator: Adobe Illustrator 27.9.4, SVG Export Plug-In . SVG Version: 9.03 Build 54784)  -->
<svg version="1.1" id="Layer_1" xmlns="http://www.w3.org/2000/svg" xmlns:xlink="http://www.w3.org/1999/xlink" x="0px" y="0px"
	 viewBox="0 0 32 32" style="enable-background:new 0 0 32 32;" xml:space="preserve">
<style type="text/css">
	.st0{fill:#30190A;}
</style>
<g>
	<path class="st0" d="M30.563,10.02c-0.136-0.196-0.228-0.39-0.415-0.485c-0.216-0.111-0.438-0.192-0.62-0.24
		c-0.255-0.067-0.508-0.162-0.748-0.166c-0.262-0.004-0.527,0.043-0.763,0.091c-0.261,0.052-0.495,0.183-0.714,0.266
		c-0.267,0.101-0.528,0.155-0.712,0.245c-0.217,0.106-0.455,0.238-0.689,0.386c-0.212,0.134-0.446,0.272-0.658,0.436
		c-0.203,0.158-0.365,0.383-0.556,0.565c-0.19,0.18-0.374,0.373-0.54,0.573c-0.169,0.204-0.226,0.481-0.357,0.702
		c-0.136,0.229-0.354,0.413-0.436,0.655c-0.085,0.25-0.204,0.513-0.216,0.773c-0.006,0.131,0.101,0.732-0.039,0.758
		c-0.103,0.019-0.207-0.34-0.402-0.669c-0.104-0.176-0.285-0.336-0.462-0.534c-0.286-0.32-0.631-0.548-0.848-0.671
		c0.191-0.159,0.494-0.411,0.754-0.703c0.195-0.219,0.483-0.415,0.676-0.713c0.153-0.236,0.296-0.479,0.41-0.717
		c0.12-0.253,0.065-0.567,0.147-0.817c0.087-0.267,0.328-0.486,0.378-0.743c0.054-0.279-0.061-0.573-0.041-0.832
		c0.022-0.288,0.004-0.554-0.004-0.806c-0.01-0.302-0.057-0.563-0.089-0.796c-0.054-0.393-0.046-0.681-0.077-0.8
		c-0.069-0.265-0.158-0.532-0.256-0.81c-0.091-0.258-0.126-0.555-0.281-0.809c-0.139-0.228-0.35-0.428-0.569-0.643
		c-0.22-0.216-0.422-0.448-0.661-0.589c-0.265-0.156-0.57-0.216-0.834-0.301c-0.302-0.097-0.597-0.14-0.859-0.174
		c-0.366-0.048-0.673,0.024-0.869,0.022c-0.146-0.001-0.415-0.035-0.766,0.005c-0.226,0.025-0.474,0.075-0.748,0.146
		c-0.234,0.061-0.523,0.025-0.773,0.136c-0.225,0.099-0.443,0.258-0.668,0.408c-0.206,0.137-0.332,0.384-0.527,0.572
		c-0.18,0.174-0.471,0.235-0.603,0.413c-0.154,0.206-0.147,0.495-0.248,0.685c-0.129,0.244-0.268,0.491-0.331,0.667
		c-0.138-0.152-0.354-0.346-0.571-0.532c-0.173-0.148-0.371-0.289-0.597-0.437c-0.127-0.083-0.388-0.22-0.747-0.393
		c-0.226-0.109-0.419-0.413-0.72-0.506C11.66,3.558,11.36,3.511,11.06,3.469c-0.269-0.037-0.57-0.054-0.87-0.044
		c-0.264,0.009-0.498,0.218-0.74,0.263c-0.26,0.048-0.515,0.05-0.747,0.129C8.451,3.903,8.218,4.002,7.999,4.111
		c-0.241,0.12-0.503,0.183-0.701,0.315C7.064,4.583,6.891,4.787,6.72,4.931C6.458,5.153,6.336,5.408,6.233,5.514
		C6.125,5.625,5.79,5.728,5.549,6.027C5.393,6.221,5.357,6.546,5.194,6.804C5.052,7.03,4.87,7.244,4.751,7.511
		C4.639,7.76,4.467,8.001,4.398,8.279c-0.067,0.266-0.182,0.552-0.191,0.84C4.198,9.391,4.272,9.688,4.331,9.973
		c0.059,0.284,0.229,0.517,0.329,0.74c0.127,0.283,0.192,0.491,0.317,0.666c-0.251,0.084-0.521,0.222-0.875,0.415
		c-0.269,0.146-0.618,0.26-0.906,0.492c-0.088,0.071-0.321,0.327-0.625,0.669c-0.174,0.195-0.239,0.528-0.422,0.807
		c-0.155,0.235-0.357,0.459-0.49,0.751c-0.119,0.261-0.214,0.543-0.295,0.848c-0.074,0.279-0.065,0.576-0.093,0.89
		c-0.021,0.236-0.242,0.488-0.24,0.763c0.002,0.245,0.044,0.521,0.106,0.784c0.056,0.236,0.219,0.462,0.353,0.703
		c0.131,0.235,0.256,0.468,0.438,0.642c0.178,0.17,0.434,0.253,0.669,0.388c0.206,0.118,0.435,0.222,0.691,0.33
		c0.219,0.092,0.481,0.115,0.74,0.21c0.226,0.083,0.455,0.203,0.714,0.295c0.261,0.092,0.473,0.277,0.71,0.353
		c0.26,0.083,0.538,0.033,0.786,0.084c0.258,0.053,0.494,0.273,0.758,0.279c0.25,0.005,0.519-0.065,0.792-0.115
		c0.313-0.057,0.557-0.263,0.803-0.362c0.317-0.128,0.606-0.231,0.802-0.357c0.178,0.18,0.493,0.358,0.854,0.583
		c0.09,0.056,0.319,0.352,0.74,0.509c0.251,0.094,0.547,0.224,0.871,0.273c0.282,0.043,0.6-0.003,0.915-0.036
		c0.279-0.03,0.491-0.192,0.721-0.281c0.238-0.092,0.455-0.193,0.683-0.335c0.206-0.128,0.406-0.285,0.638-0.441
		c0.237-0.16,0.451-0.323,0.66-0.459c0.245-0.16,0.559-0.169,0.769-0.301c0.252-0.158,0.394-0.438,0.601-0.561
		c0.263-0.156,0.604-0.095,0.806-0.208c0.28-0.156,0.469-0.346,0.662-0.45c0.284-0.154,0.548-0.206,0.736-0.348
		c0.189-0.143,0.357-0.348,0.56-0.602c0.141-0.177,0.235-0.461,0.403-0.745c0.127-0.215,0.341-0.425,0.463-0.707
		c0.102-0.238,0.028-0.562,0.114-0.851c0.075-0.251,0.144-0.512,0.199-0.804c0.049-0.26,0.164-0.532,0.191-0.826
		c0.138,0.174,0.284,0.413,0.445,0.673c0.128,0.206,0.214,0.457,0.335,0.717c0.106,0.227,0.318,0.43,0.406,0.697
		c0.097,0.297,0.001,0.617,0.05,0.883c0.056,0.309,0.185,0.577,0.199,0.845c0.017,0.317,0.045,0.605,0.041,0.865
		c-0.003,0.148,0.027,0.406-0.006,0.74c-0.021,0.212-0.037,0.464-0.083,0.736c-0.038,0.223-0.264,0.427-0.325,0.684
		c-0.054,0.227-0.124,0.456-0.2,0.704c-0.073,0.236-0.11,0.53-0.222,0.843c-0.09,0.252-0.093,0.566-0.221,0.853
		c-0.112,0.252-0.292,0.49-0.442,0.759c-0.135,0.243-0.243,0.52-0.415,0.77c-0.16,0.232-0.336,0.471-0.533,0.703
		c-0.182,0.216-0.442,0.375-0.66,0.587c-0.225,0.219-0.462,0.4-0.688,0.581c-0.249,0.198-0.473,0.399-0.714,0.555
		c-0.27,0.174-0.567,0.252-0.816,0.38c-0.296,0.153-0.532,0.352-0.78,0.452c-0.353,0.142-0.603,0.365-0.804,0.429
		c-0.229,0.072-0.525,0.149-0.856,0.231c-0.261,0.064-0.592-0.09-0.906-0.045c-0.274,0.039-0.549,0.243-0.858,0.252
		c-0.283,0.009-0.579-0.088-0.885-0.117c-0.284-0.026-0.571-0.081-0.871-0.148c-0.223-0.05-0.544-0.046-0.883-0.166
		c-0.255-0.09-0.495-0.289-0.78-0.45c-0.244-0.138-0.565-0.209-0.81-0.418c-0.171-0.146-0.3-0.375-0.483-0.581
		c-0.15-0.169-0.296-0.364-0.424-0.61c-0.129-0.25-0.11-0.504-0.16-0.721c-0.065-0.28-0.096-0.514-0.117-0.724
		c-0.032-0.311-0.194-0.479-0.404-0.594c-0.194-0.106-0.435-0.129-0.687-0.019c-0.223,0.098-0.429,0.267-0.569,0.458
		c-0.197,0.269-0.14,0.57-0.119,0.866c0.025,0.356,0.091,0.677,0.167,0.882c0.106,0.288,0.128,0.609,0.287,0.84
		c0.172,0.249,0.39,0.469,0.595,0.661c0.226,0.211,0.497,0.356,0.724,0.507c0.277,0.184,0.493,0.415,0.703,0.528
		c0.276,0.149,0.582,0.227,0.851,0.333c0.293,0.116,0.58,0.234,0.858,0.308c0.306,0.082,0.622,0.066,0.903,0.11
		c0.32,0.049,0.627-0.032,0.904-0.015c0.339,0.02,0.634,0.185,0.887,0.186c0.215,0.001,0.512,0.021,0.862-0.006
		c0.254-0.019,0.547-0.04,0.857-0.088c0.262-0.04,0.527-0.193,0.822-0.261c0.266-0.062,0.551-0.112,0.838-0.202
		c0.264-0.083,0.539-0.174,0.816-0.284c0.197-0.079,0.496-0.163,0.835-0.326c0.239-0.114,0.509-0.256,0.794-0.422
		c0.24-0.14,0.522-0.265,0.783-0.447c0.232-0.162,0.437-0.394,0.676-0.593c0.221-0.184,0.368-0.466,0.589-0.685
		c0.206-0.204,0.489-0.349,0.689-0.585c0,0,0.142-0.263,0.42-0.681c0.125-0.188,0.281-0.405,0.432-0.667
		c0.122-0.212,0.18-0.479,0.308-0.736c0.112-0.224,0.363-0.4,0.471-0.657c0.1-0.235,0.055-0.537,0.147-0.797
		c0.086-0.243,0.162-0.493,0.237-0.757c0.071-0.25,0.179-0.494,0.236-0.761c0.054-0.255,0.073-0.518,0.111-0.788
		c0.037-0.259,0.202-0.51,0.222-0.782c0.019-0.262-0.023-0.534-0.022-0.806c0.001-0.631-0.03-0.643-0.03-0.643
		c-0.026-0.284-0.036-0.388,0.034-0.473c0.114-0.137,0.388-0.023,0.622,0.026c0,0,0.214,0.041,0.723,0.021
		c0.197-0.008,0.42-0.09,0.713-0.156c0.309-0.069,0.607-0.094,0.87-0.196c0.312-0.121,0.622-0.182,0.85-0.308
		c0.468-0.259,0.668-0.588,0.668-0.588c0.252-0.207,0.49-0.379,0.676-0.603c0.197-0.237,0.467-0.42,0.619-0.687
		c0.145-0.255,0.161-0.588,0.292-0.881c0.117-0.263,0.252-0.535,0.378-0.836c0.109-0.261,0.233-0.503,0.326-0.741
		c0.105-0.269,0.13-0.542,0.198-0.781c0.081-0.285,0.258-0.53,0.259-0.772C30.933,10.436,30.717,10.243,30.563,10.02z
		 M15.936,12.143c-0.206-0.131-0.201-0.428-0.266-0.648c-0.058-0.195-0.112-0.416-0.308-0.585c-0.213-0.184-0.494-0.312-0.793-0.314
		c-0.259-0.002-0.552,0.06-0.842,0.103c-0.17,0.026-0.404,0.119-0.682,0.202c-0.202,0.06-0.456,0.089-0.686,0.21
		c-0.194,0.102-0.407,0.238-0.604,0.401c-0.153,0.125-0.371,0.279-0.556,0.48c-0.155,0.168-0.259,0.416-0.369,0.643
		c-0.1,0.206-0.173,0.449-0.186,0.707c-0.003,0.059,0.096,0.365,0.217,0.747c0.071,0.222,0.082,0.512,0.271,0.728
		c0.063,0.071,0.052,0.136,0.093,0.172c-0.01,0.047-0.009,0.691-0.511,0.875c-0.562,0.205-1.1-0.382-1.157-0.436
		c-0.261-0.251-0.426-0.573-0.457-0.904c-0.037-0.396,0.005-0.805,0.047-1.034c0.049-0.269,0.174-0.516,0.267-0.746
		c0.103-0.253,0.318-0.43,0.45-0.634c0.154-0.239,0.318-0.429,0.473-0.599c0.236-0.259,0.334-0.557,0.447-0.649
		c0.226-0.186,0.557-0.191,0.785-0.32c0.257-0.145,0.445-0.393,0.689-0.48c0.287-0.103,0.563-0.194,0.806-0.24
		c0.342-0.065,0.636-0.108,0.828-0.121c0.273-0.018,0.563,0.041,0.849,0.049c0.278,0.008,0.568,0.024,0.842,0.107
		c0.255,0.078,0.464,0.276,0.702,0.463c0.279,0.219,0.508,0.439,0.652,0.686c0.213,0.364,0.245,0.674,0.284,0.854
		c-0.196,0.098-0.358,0.22-0.574,0.265C16.408,12.175,16.12,12.261,15.936,12.143z"/>
</g>
</svg>
